<svg width="24" height="18" viewBox="0 0 24 18" fill="none" xmlns="http://www.w3.org/2000/svg">
<g id="Group">
<path id="Vector" d="M1.63636 18.0022H5.45456V8.72949L2.95434 4.36365L0 4.63857V16.3659C0 17.2699 0.732281 18.0022 1.63636 18.0022Z" fill="#0085F7"/>
<path id="Vector_2" d="M18.5447 18.0022H22.3629C23.267 18.0022 23.9992 17.2699 23.9992 16.3659V4.63857L21.0492 4.36365L18.5447 8.72949V18.0022H18.5447Z" fill="#00A94B"/>
<path id="Vector_3" d="M18.5453 1.63856L16.3025 5.91839L18.5453 8.72948L23.9999 4.63856V2.45676C23.9999 0.434483 21.6912 -0.720517 20.0726 0.493124L18.5453 1.63856Z" fill="#FFBC00"/>
<path id="Vector_4" fill-rule="evenodd" clip-rule="evenodd" d="M5.45407 8.72948L3.31689 4.21494L5.45407 1.63855L11.9995 6.54763L18.5449 1.63855V8.72948L11.9995 13.6386L5.45407 8.72948Z" fill="#FF4131"/>
<path id="Vector_5" d="M0 2.45676V4.63856L5.45456 8.72948V1.63856L3.92728 0.493124C2.30864 -0.720517 0 0.434483 0 2.45676H0Z" fill="#E51C19"/>
</g>
</svg>
